<?xml version="1.0" encoding="iso-8859-1"?>
<!-- Generator: Adobe Illustrator 19.0.0, SVG Export Plug-In . SVG Version: 6.00 Build 0)  -->
<svg version="1.1" id="Capa_1" xmlns="http://www.w3.org/2000/svg" xmlns:xlink="http://www.w3.org/1999/xlink" x="0px" y="0px"
	 viewBox="0 0 512.002 512.002" style="enable-background:new 0 0 512.002 512.002;" xml:space="preserve">
<path style="fill:#B6B0A2;" d="M198.653,346.535c0,0,66.714-27.517,163.712-12.017l-48.916,67.499l-78.96,9L198.653,346.535z"/>
<path style="fill:#4FE267;" d="M384.898,274.938c2.243-0.257,4.281,0.717,5.517,2.324l-53.014,74.999l-16.45,0.078
	C320.952,352.337,331.407,281.062,384.898,274.938z"/>
<g>
	<path style="fill:#00BD4F;" d="M390.416,277.262c0.956,1.242,1.433,2.861,1.155,4.584c-1.881,11.666-8.182,34.954-29.205,52.673
		l-24.965,17.742C343.367,317.016,376.93,286.623,390.416,277.262z"/>
	<path style="fill:#00BD4F;" d="M288.088,297.682c28.654,17.48,32.129,46.065,32.865,54.655l-18.033,6.858l-19.065-30.027
		l0.088-31.988C285.267,296.764,286.772,296.879,288.088,297.682z"/>
</g>
<path style="fill:#4FE267;" d="M280.603,300.73c0.428-1.792,1.755-3.053,3.339-3.55l18.977,62.015l-21.859-0.868
	C278.934,347.043,275.454,322.298,280.603,300.73z"/>
<path style="fill:#00BD4F;" d="M317.072,357.258c-3.219-0.985-5.478-4.063-5.289-7.576c1.726-32.04,6.803-62.02,15.088-89.107
	c1.212-3.961,5.405-6.19,9.366-4.978c3.961,1.212,6.19,5.404,4.978,9.366c-7.93,25.925-12.792,54.699-14.453,85.526
	c-0.223,4.136-3.757,7.309-7.893,7.085C318.245,357.541,317.644,357.432,317.072,357.258z"/>
<path style="fill:#FFF9EB;" d="M206.038,346.534c47.197,18.583,109.132,15.555,151.53-9.081L242.369,474.516L193.192,359.77
	C189.693,351.609,197.774,343.28,206.038,346.534z"/>
<path style="fill:#E9E3D5;" d="M302.368,474.516l59.999-139.998c-1.569,1.01-3.17,1.988-4.799,2.934
	c-95.841,59.639-115.199,137.064-115.199,137.064l-7.542,12.57c-3.628,6.047-0.036,13.906,6.928,15.012
	c20.087,3.192,41.14,3.192,61.227,0c6.964-1.107,10.556-8.966,6.928-15.012L302.368,474.516z"/>
<g>
	<path style="fill:#FF5368;" d="M192.003,97.498c-16.568,0-30-13.432-30-30v-30c0-16.568,13.432-30,30-30s30,13.432,30,30v30
		C222.003,84.067,208.572,97.498,192.003,97.498z"/>
	<path style="fill:#FF5368;" d="M192.003,217.497c-16.568,0-30-13.432-30-30v-30c0-16.568,13.432-30,30-30s30,13.432,30,30v30
		C222.003,204.065,208.572,217.497,192.003,217.497z"/>
	<path style="fill:#FF5368;" d="M267.002,142.498h-30c-16.568,0-30-13.432-30-30s13.432-30,30-30h30c16.568,0,30,13.432,30,30
		S283.571,142.498,267.002,142.498z"/>
	<path style="fill:#FF5368;" d="M147.004,142.498h-30c-16.568,0-30-13.432-30-30s13.432-30,30-30h30c16.568,0,30,13.432,30,30
		S163.573,142.498,147.004,142.498z"/>
</g>
<g>
	<path style="fill:#FF7C8B;" d="M223.823,110.678c7.678,0,15.355-2.929,21.213-8.787l21.214-21.213
		c11.715-11.716,11.715-30.711,0-42.426c-11.716-11.716-30.711-11.716-42.426,0L202.61,59.466
		c-11.715,11.716-11.715,30.711,0,42.426C208.468,107.749,216.145,110.678,223.823,110.678z"/>
	<path style="fill:#FF7C8B;" d="M138.971,123.104l-21.213,21.213c-11.715,11.716-11.715,30.711,0,42.426
		c5.858,5.858,13.536,8.787,21.213,8.787c7.677,0,15.355-2.929,21.213-8.787l21.213-21.213c11.715-11.716,11.715-30.711,0-42.426
		C169.682,111.389,150.687,111.389,138.971,123.104z"/>
	<path style="fill:#FF7C8B;" d="M245.035,123.104c-11.716-11.716-30.711-11.716-42.426,0c-11.715,11.716-11.715,30.711,0,42.426
		l21.213,21.213c5.858,5.858,13.536,8.787,21.213,8.787s15.355-2.929,21.213-8.787c11.715-11.716,11.715-30.711,0-42.426
		L245.035,123.104z"/>
	<path style="fill:#FF7C8B;" d="M160.184,38.252c-11.716-11.716-30.711-11.716-42.426,0c-11.715,11.716-11.715,30.711,0,42.426
		l21.213,21.213c5.858,5.858,13.536,8.787,21.213,8.787s15.355-2.929,21.213-8.787c11.715-11.716,11.715-30.711,0-42.426
		L160.184,38.252z"/>
</g>
<circle style="fill:#FFCF5D;" cx="192" cy="112.498" r="44.999"/>
<path style="fill:#FF983B;" d="M207.93,70.409c1.875,4.952,2.91,10.318,2.91,15.927c0,24.853-20.147,44.999-44.999,44.999
	c-5.609,0-10.975-1.035-15.927-2.91c6.433,16.99,22.847,29.073,42.089,29.073c24.853,0,44.999-20.147,44.999-44.999
	C237.003,93.256,224.92,76.842,207.93,70.409z"/>
<path style="fill:#FF5368;" d="M414.667,182.353c1.273-18.201-13.801-33.296-32.023-32.022c-11.97-13.77-33.302-13.786-45.286,0
	c-18.202-1.273-33.296,13.801-32.022,32.022c-13.771,11.971-13.786,33.303,0,45.287c-1.27,18.162,13.765,33.3,32.022,32.022
	c11.971,13.771,33.303,13.786,45.286,0c18.273,1.279,33.291-13.873,32.023-32.022C428.438,215.67,428.453,194.337,414.667,182.353z"
	/>
<circle style="fill:#FF983B;" cx="359.998" cy="204.997" r="22.5"/>
<path style="fill:#FF7C8B;" d="M262.992,300.001c0-9.042-4.006-17.144-10.334-22.644c0.585-8.363-2.311-16.924-8.704-23.318
	c-6.394-6.394-14.955-9.29-23.318-8.705c-5.5-6.327-13.602-10.333-22.643-10.333s-17.143,4.006-22.643,10.333
	c-8.363-0.585-16.925,2.311-23.318,8.705c-6.393,6.394-9.289,14.955-8.704,23.318c-6.327,5.5-10.334,13.602-10.334,22.644
	c0,9.042,4.006,17.144,10.334,22.644c-0.585,8.363,2.311,16.924,8.704,23.318c5.858,5.858,13.536,8.787,21.213,8.787
	c0.702,0,1.404-0.033,2.105-0.082c5.5,6.327,13.602,10.333,22.644,10.333s17.143-4.006,22.644-10.333
	c0.701,0.049,1.403,0.082,2.105,0.082c7.678,0,15.355-2.929,21.213-8.787c6.393-6.394,9.289-14.955,8.704-23.318
	C258.986,317.144,262.992,309.043,262.992,300.001z"/>
<circle style="fill:#FFCF5D;" cx="197.99" cy="300.005" r="22.5"/>
<path d="M422.227,179.222c-0.544-19.933-16.566-35.909-36.451-36.45c-14.46-13.692-37.075-13.703-51.548,0
	c-19.894,0.542-35.908,16.527-36.45,36.45c-13.686,14.453-13.704,37.077,0,51.549c0.449,16.388,11.493,30.66,27.413,35.086
	c-4.446,15.121-7.906,31.118-10.357,47.85c-6.405-9.647-15.865-18.917-29.826-25.898c-1.945-0.973-4.217-1.054-6.225-0.221
	c-2.009,0.832-3.558,2.495-4.245,4.558c-6.598,19.792-5.264,42.95-3.004,58.83c-6.976,0.005-13.976-0.372-20.922-1.144
	c5.969-6.635,9.365-15.165,9.608-24.059c13.687-14.452,13.706-37.077,0-51.549c-0.329-12.088-6.467-23.398-16.749-30.217
	c-3.502-15.011-6.651-29.551-9.071-42.507c31.619,9.303,59.158-23.853,43.916-53.252c15.165-4.81,26.187-19.016,26.187-35.751
	s-11.022-30.943-26.187-35.751c7.322-14.124,5.07-31.964-6.764-43.797c-11.835-11.834-29.674-14.086-43.797-6.764
	C222.946,11.021,208.739,0,192.003,0s-30.943,11.022-35.751,26.187c-14.124-7.322-31.964-5.07-43.798,6.764
	c-11.833,11.834-14.084,29.673-6.763,43.797c-15.165,4.81-26.187,19.016-26.187,35.751s11.021,30.942,26.186,35.751
	c-16.796,32.4,18.204,67.421,50.564,50.571c8.986,28.303,45.859,35.474,64.762,12.404c1.672,8.506,3.593,17.51,5.674,26.755
	c-0.969-0.102-1.943-0.177-2.924-0.204c-14.452-13.684-37.076-13.704-51.549,0c-19.895,0.543-35.907,16.527-36.45,36.45
	c-13.685,14.452-13.705,37.078,0,51.549c0.544,19.889,16.525,35.91,36.451,36.451c4.816,4.56,10.728,7.736,17.115,9.255
	l43.913,102.465L220.375,495.4c-1.228,2.046-1.409,4.554-0.487,6.755c0.921,2.201,2.835,3.832,5.154,4.393
	c30.055,7.271,63.158,7.272,93.216,0c4.925-1.191,7.263-6.822,4.668-11.148l-12.872-21.453l57.822-134.919
	c30.061-26.415,31.236-62.782,31.27-64.34c0.094-4.217-3.305-7.667-7.498-7.667c-2.002,0-3.974,0.088-5.922,0.245
	c0.015-0.014,0.032-0.028,0.047-0.042c9.548-0.26,18.676-4.146,25.48-10.951c6.816-6.815,10.71-15.95,10.972-25.5
	c6.568-6.937,10.274-16.146,10.274-25.777C432.501,195.365,428.795,186.158,422.227,179.222z M286.424,306.01
	c16.183,11.146,22.609,26.581,25.093,38.486c-0.052,0.735-0.102,1.469-0.151,2.206c-8.025,1.769-16.326,3.002-24.755,3.677
	C284.966,339.334,283.405,321.898,286.424,306.01z M229.126,43.556c8.773-8.772,23.047-8.772,31.82,0
	c8.773,8.773,8.773,23.047,0,31.821c-1.896,1.897-2.497,2.403-3.131,3.591c-0.489,0.916-0.761,1.915-0.847,2.793
	c-0.052,0.525-0.047,0.998,0,1.479c0.047,0.48,0.178,1.08,0.286,1.438c0.123,0.407,0.356,0.972,0.563,1.358
	c0.175,0.326,0.505,0.842,0.814,1.219c0.302,0.367,0.645,0.717,1.046,1.046c0.375,0.308,0.889,0.638,1.221,0.815
	c0.372,0.199,0.938,0.435,1.359,0.562c0.384,0.116,0.99,0.242,1.438,0.285c0.59,0.058,1.491,0.037,3.308,0.037
	c12.406,0,22.5,10.093,22.5,22.5c0,12.232-9.814,22.209-21.98,22.487l-14.986-14.988h14.467c4.143,0,7.5-3.358,7.5-7.5
	c0-4.142-3.357-7.5-7.5-7.5h-23.038c-1.274-8.863-4.792-17.029-9.952-23.904l16.326-16.326c2.929-2.929,2.929-7.678,0-10.606
	c-2.929-2.929-7.678-2.929-10.606,0l-16.328,16.328c-4.163-3.124-8.796-5.652-13.775-7.438
	C225.7,46.982,225.719,46.963,229.126,43.556z M154.225,110.494c0.245-0.623,0.418-1.279,0.489-1.96
	c1.833-17.478,15.848-31.493,33.325-33.324c0.692-0.073,1.349-0.244,1.967-0.487c1.34,0.37,2.66,0.37,4.002-0.002
	c0.623,0.245,1.279,0.418,1.96,0.489c17.478,1.833,31.493,15.848,33.325,33.324c0.073,0.694,0.241,1.354,0.485,1.974
	c-0.368,1.339-0.368,2.656,0.004,3.996c-0.245,0.623-0.417,1.278-0.489,1.959c-1.833,17.478-15.848,31.493-33.325,33.325
	c-0.692,0.073-1.349,0.244-1.967,0.488c-0.637-0.176-1.305-0.278-1.998-0.278c-0.695,0-1.365,0.102-2.004,0.279
	c-0.623-0.245-1.279-0.418-1.96-0.489c-17.478-1.833-31.493-15.848-33.325-33.325c-0.073-0.692-0.244-1.349-0.488-1.966
	c0.176-0.637,0.278-1.305,0.278-1.998C154.504,111.803,154.402,111.133,154.225,110.494z M123.061,43.556
	c8.774-8.773,23.048-8.773,31.821,0.001c0.465,0.465,1.908,1.937,2.368,2.315c0.297,0.244,0.805,0.592,1.22,0.815
	c0.379,0.203,0.944,0.437,1.356,0.562c0.412,0.125,1.014,0.245,1.437,0.286c0.775,0.077,1.608,0.042,2.543-0.189
	c0.4-0.099,0.741-0.19,1.37-0.484c0.507-0.237,0.832-0.431,1.288-0.769c0.336-0.249,0.458-0.327,0.914-0.794
	c0.773-0.794,1.327-1.71,1.681-2.698c0.573-1.596,0.447-2.661,0.447-5.103c0-12.407,10.093-22.5,22.5-22.5
	c12.232,0,22.208,9.813,22.487,21.979l-14.987,14.988V37.499c0-4.142-3.358-7.5-7.5-7.5s-7.5,3.358-7.5,7.5v23.038
	c-8.862,1.273-17.028,4.792-23.903,9.952l-16.326-16.326c-2.929-2.929-7.678-2.929-10.606,0c-2.929,2.929-2.929,7.678,0,10.606
	l16.328,16.328c-3.124,4.163-5.652,8.797-7.439,13.775c-2.239-2.239-15.555-15.555-17.678-17.678l-1.819-1.819
	C114.29,66.603,114.29,52.329,123.061,43.556z M154.88,181.44c-4.249,4.25-9.899,6.59-15.909,6.59
	c-19.893,0-30.095-24.224-15.911-38.408c0.408-0.408,1.469-1.466,1.872-1.877c0.407-0.415,0.465-0.519,0.659-0.778
	c0.25-0.336,0.187-0.236,0.429-0.642c0.198-0.334,0.14-0.214,0.34-0.64c0.172-0.365,0.125-0.247,0.273-0.66
	c0.149-0.415,0.112-0.299,0.211-0.697c0.102-0.406,0.083-0.293,0.15-0.762c0.063-0.437,0.084-0.559,0.083-1.085
	c-0.001-0.31-0.015-0.791-0.144-1.447c-0.018-0.091-0.153-0.627-0.178-0.712c-0.029-0.097-0.21-0.6-0.248-0.693
	c-0.036-0.088-0.265-0.571-0.315-0.665c-0.037-0.069-0.319-0.542-0.378-0.63c-0.049-0.074-0.393-0.536-0.437-0.589
	c-0.146-0.178-0.409-0.462-0.495-0.548c-0.116-0.116-0.371-0.35-0.549-0.496c-0.051-0.042-0.518-0.389-0.59-0.437
	c-0.087-0.058-0.561-0.341-0.63-0.378c-0.095-0.051-0.582-0.28-0.665-0.315c-0.093-0.038-0.598-0.219-0.693-0.248
	c-0.08-0.024-0.618-0.16-0.712-0.178c-0.097-0.019-0.666-0.102-0.726-0.108c-0.264-0.026-0.51-0.037-0.74-0.037h-2.573
	c-12.407,0-22.5-10.093-22.5-22.5c0-12.232,9.813-22.208,21.979-22.487l14.988,14.985h-14.467c-4.142,0-7.5,3.358-7.5,7.5
	c0,4.142,3.358,7.5,7.5,7.5h23.038c1.274,8.863,4.792,17.029,9.952,23.904l-16.326,16.326c-4.74,4.74-1.317,12.803,5.303,12.803
	c4.097,0,4.217-1.11,21.631-18.525c4.164,3.125,8.797,5.652,13.775,7.438L154.88,181.44z M226.17,178.688
	c-0.093-0.062-0.563-0.342-0.63-0.378c-0.099-0.053-0.585-0.282-0.665-0.315c-0.093-0.039-0.597-0.219-0.693-0.248
	c-0.086-0.026-0.625-0.161-0.712-0.178c-0.102-0.02-0.666-0.102-0.727-0.108c-0.419-0.042-0.74-0.037-0.74-0.037
	c-1.195,0-2.446,0.304-3.535,0.886c-0.101,0.054-0.197,0.116-0.295,0.174c-0.112,0.067-0.226,0.13-0.335,0.203
	c-0.106,0.071-0.205,0.15-0.307,0.226c-0.094,0.07-0.191,0.136-0.282,0.211c-0.164,0.135-0.321,0.279-0.473,0.427
	c-0.024,0.024-0.051,0.044-0.075,0.068c-0.019,0.019-0.034,0.039-0.052,0.058c-0.154,0.157-0.304,0.32-0.444,0.491
	c-0.077,0.093-0.143,0.192-0.215,0.287c-0.075,0.1-0.152,0.198-0.222,0.302c-0.074,0.111-0.139,0.226-0.207,0.34
	c-0.057,0.096-0.118,0.19-0.171,0.289c-0.062,0.115-0.114,0.233-0.169,0.351c-0.049,0.104-0.101,0.207-0.146,0.314
	c-0.047,0.114-0.085,0.23-0.127,0.346c-0.041,0.115-0.086,0.229-0.121,0.347c-0.035,0.116-0.061,0.233-0.09,0.35
	c-0.03,0.121-0.064,0.24-0.089,0.362c-0.026,0.133-0.042,0.266-0.061,0.4c-0.016,0.109-0.036,0.216-0.047,0.327
	c-0.024,0.246-0.037,0.493-0.037,0.74l0,0v2.573c0,12.407-10.093,22.5-22.5,22.5c-12.232,0-22.209-9.813-22.487-21.98l14.986-14.986
	v14.467c0,4.142,3.358,7.5,7.5,7.5s7.5-3.358,7.5-7.5v-23.038c8.862-1.273,17.028-4.792,23.904-9.952
	c17.682,17.682,17.598,18.523,21.629,18.523c6.621,0,10.043-8.065,5.303-12.803L234.01,143.9c3.125-4.164,5.653-8.797,7.439-13.776
	l19.496,19.497c4.25,4.25,6.591,9.9,6.591,15.91c0,12.434-10.063,22.5-22.5,22.5c-7.977,0-12.77-3.449-17.729-8.409
	c-0.115-0.115-0.37-0.349-0.548-0.496C226.702,179.078,226.231,178.729,226.17,178.688z M181.01,349.746
	c-1.552-1.786-3.857-2.729-6.184-2.561c-13.692,0.954-24.97-10.395-24.017-24.019c0.164-2.349-0.785-4.639-2.562-6.183
	c-10.339-8.988-10.328-24.989,0-33.966c1.777-1.544,2.726-3.834,2.562-6.183c-0.958-13.689,10.394-24.972,24.018-24.018
	c2.355,0.166,4.639-0.785,6.184-2.562c9.003-10.357,25.007-10.307,33.966,0c1.545,1.777,3.831,2.729,6.184,2.562
	c13.664-0.957,24.972,10.366,24.018,24.018c-0.164,2.349,0.785,4.639,2.562,6.184c4.928,4.284,7.754,10.473,7.754,16.981
	c0,6.511-2.826,12.702-7.754,16.985c-1.777,1.545-2.726,3.835-2.562,6.184c0.456,6.515-1.926,12.894-6.536,17.502
	c-4.597,4.597-10.968,6.969-17.481,6.516c-2.35-0.168-4.64,0.784-6.185,2.561c-4.283,4.928-10.472,7.754-16.98,7.754
	C191.485,357.5,185.294,354.673,181.01,349.746z M205.739,371.681c6.736-1.425,12.984-4.678,18.029-9.455
	c1.964-0.053,3.908-0.269,5.82-0.623c26.908,5.804,55.065,5.872,80.976,0.722c-28.879,25.205-54.263,56.947-69.463,91.866
	L205.739,371.681z M296.706,467.016h-7.703c-4.143,0-7.5,3.358-7.5,7.5s3.357,7.5,7.5,7.5h8.402l7.245,12.075
	c-21.586,3.89-44.41,3.89-65.997,0l7.245-12.075h13.105c4.143,0,7.5-3.358,7.5-7.5s-3.357-7.5-7.5-7.5h-6.932
	c17.185-44.859,53.572-84.856,92.931-112.69L296.706,467.016z M357.209,328.444c-2.798,1.687-11.61,7.506-26.758,12.845
	c5.341-18.834,19.557-53.474,52.656-58.623C381.052,293.613,374.987,313.246,357.209,328.444z M332.188,300.888
	c1.944-10.238,4.297-20.146,7.06-29.68c4.897,3.259,10.51,5.333,16.4,6.022C346.759,282.863,338.887,290.783,332.188,300.888z
	 M409.747,221.98c-1.776,1.544-2.725,3.834-2.561,6.183c0.953,13.649-10.355,24.979-24.019,24.018
	c-2.337-0.163-4.639,0.784-6.184,2.562c-9.005,10.358-25.006,10.308-33.966,0c-1.544-1.776-3.833-2.726-6.184-2.562
	c-13.715,0.957-24.968-10.416-24.018-24.018c0.164-2.349-0.784-4.639-2.562-6.183c-10.356-9.004-10.308-25.007,0-33.966
	c1.777-1.545,2.727-3.835,2.562-6.184c-0.455-6.514,1.923-12.889,6.525-17.491c4.604-4.604,10.975-6.983,17.492-6.526
	c2.338,0.162,4.639-0.784,6.184-2.562c9.004-10.357,25.006-10.307,33.966,0c1.545,1.778,3.847,2.724,6.184,2.562
	c6.499-0.459,12.888,1.921,17.49,6.524c4.604,4.604,6.983,10.98,6.528,17.494c-0.164,2.349,0.784,4.639,2.562,6.183
	c4.928,4.284,7.754,10.473,7.754,16.981C417.501,211.505,414.675,217.696,409.747,221.98z"/>
<path d="M395,197.497h-5.949c-0.71-2.748-1.806-5.341-3.217-7.726l4.219-4.219c2.929-2.929,2.929-7.678,0-10.606
	c-2.93-2.929-7.678-2.929-10.607,0l-4.218,4.218c-2.385-1.411-4.979-2.507-7.727-3.217v-5.95c0-4.142-3.357-7.5-7.5-7.5
	s-7.5,3.358-7.5,7.5v5.949c-2.748,0.71-5.341,1.806-7.726,3.217l-4.218-4.218c-2.93-2.929-7.678-2.929-10.607,0
	c-2.929,2.929-2.929,7.678,0,10.606l4.218,4.218c-1.411,2.385-2.507,4.979-3.217,7.727h-5.949c-4.143,0-7.5,3.358-7.5,7.5
	s3.357,7.5,7.5,7.5h5.949c0.71,2.748,1.806,5.342,3.217,7.727l-4.219,4.219c-4.741,4.74-1.316,12.803,5.304,12.803
	c3.815,0,5.292-2.186,9.522-6.415c2.385,1.411,4.978,2.507,7.726,3.217v5.95c0,4.142,3.357,7.5,7.5,7.5s7.5-3.358,7.5-7.5v-5.949
	c2.748-0.71,5.341-1.806,7.727-3.217c4.232,4.232,5.706,6.416,9.522,6.416c1.919,0,3.839-0.732,5.303-2.197
	c2.93-2.929,2.93-7.677,0.001-10.606l-4.219-4.219c1.411-2.385,2.507-4.978,3.217-7.726h5.949c4.143,0,7.5-3.358,7.5-7.5
	S399.143,197.497,395,197.497z M360.001,219.997c-8.271,0-15-6.729-15-15c0-8.271,6.729-15,15-15c8.271,0,15,6.729,15,15
	C375,213.268,368.273,219.997,360.001,219.997z"/>
<path d="M228.046,330.052c2.929-2.929,2.929-7.678,0-10.606l-4.219-4.219c1.411-2.385,2.507-4.979,3.217-7.727h5.949
	c4.142,0,7.5-3.358,7.5-7.5c0-4.142-3.358-7.5-7.5-7.5h-5.949c-0.71-2.748-1.806-5.341-3.217-7.727l4.219-4.219
	c2.929-2.929,2.929-7.678,0-10.606c-2.929-2.929-7.678-2.929-10.606,0l-4.219,4.219c-2.385-1.411-4.979-2.507-7.727-3.217v-5.949
	c0-4.142-3.358-7.5-7.5-7.5s-7.5,3.358-7.5,7.5v5.949c-2.748,0.71-5.341,1.806-7.727,3.217l-4.219-4.219
	c-2.928-2.929-7.677-2.929-10.606,0c-2.929,2.929-2.929,7.677,0,10.606l4.219,4.219c-1.411,2.385-2.507,4.979-3.217,7.727h-5.949
	c-4.142,0-7.5,3.358-7.5,7.5c0,4.142,3.358,7.5,7.5,7.5h5.949c0.71,2.748,1.806,5.341,3.217,7.727l-4.218,4.218
	c-4.74,4.74-1.317,12.803,5.303,12.803c3.815,0,5.29-2.184,9.522-6.415c2.385,1.411,4.979,2.507,7.727,3.217v5.949
	c0,4.142,3.358,7.5,7.5,7.5s7.5-3.358,7.5-7.5v-5.949c2.748-0.71,5.342-1.806,7.727-3.218l4.219,4.219
	C220.367,332.981,225.117,332.981,228.046,330.052z M197.994,315c-8.271,0-15-6.729-15-15c0-8.271,6.729-15,15-15
	c8.271,0,15,6.729,15,15C212.994,308.271,206.265,315,197.994,315z"/>
<g>
</g>
<g>
</g>
<g>
</g>
<g>
</g>
<g>
</g>
<g>
</g>
<g>
</g>
<g>
</g>
<g>
</g>
<g>
</g>
<g>
</g>
<g>
</g>
<g>
</g>
<g>
</g>
<g>
</g>
</svg>
