<?xml version="1.0" encoding="utf-8"?>
<!-- Generator: Adobe Illustrator 24.2.1, SVG Export Plug-In . SVG Version: 6.00 Build 0)  -->
<svg version="1.1" id="Capa_1" xmlns="http://www.w3.org/2000/svg" xmlns:xlink="http://www.w3.org/1999/xlink" x="0px" y="0px"
	 viewBox="0 0 512 512" style="enable-background:new 0 0 512 512;" xml:space="preserve">
<g>
	<path d="M144,249h-32c-8.28,0-15,6.72-15,15s6.72,15,15,15h32c8.28,0,15-6.72,15-15S152.28,249,144,249z"/>
	<path d="M144,313h-32c-8.28,0-15,6.72-15,15s6.72,15,15,15h32c8.28,0,15-6.72,15-15S152.28,313,144,313z"/>
	<path d="M144,377h-32c-8.28,0-15,6.72-15,15s6.72,15,15,15h32c8.28,0,15-6.72,15-15S152.28,377,144,377z"/>
	<path d="M272,249h-32c-8.28,0-15,6.72-15,15s6.72,15,15,15h32c8.28,0,15-6.72,15-15S280.28,249,272,249z"/>
	<path d="M272,313h-32c-8.28,0-15,6.72-15,15s6.72,15,15,15h32c8.28,0,15-6.72,15-15S280.28,313,272,313z"/>
	<path d="M272,377h-32c-8.28,0-15,6.72-15,15s6.72,15,15,15h32c8.28,0,15-6.72,15-15S280.28,377,272,377z"/>
	<path d="M400,249h-32c-8.28,0-15,6.72-15,15s6.72,15,15,15h32c8.28,0,15-6.72,15-15S408.28,249,400,249z"/>
	<path d="M400,313h-32c-8.28,0-15,6.72-15,15s6.72,15,15,15h32c8.28,0,15-6.72,15-15S408.28,313,400,313z"/>
	<path d="M400,377h-32c-8.28,0-15,6.72-15,15s6.72,15,15,15h32c8.28,0,15-6.72,15-15S408.28,377,400,377z"/>
	<path d="M467,65h-36V40c0-8.28-6.72-15-15-15s-15,6.72-15,15v25H271V40c0-8.28-6.72-15-15-15s-15,6.72-15,15v25H111V40
		c0-8.28-6.72-15-15-15s-15,6.72-15,15v25H45C20.19,65,0,85.19,0,110v332c0,24.81,20.19,45,45,45h422c24.81,0,45-20.19,45-45
		c0-9.68,0-323.58,0-332C512,85.19,491.81,65,467,65z M30,110c0-8.27,6.73-15,15-15h36v25c0,8.28,6.72,15,15,15s15-6.72,15-15V95
		h130v25c0,8.28,6.72,15,15,15s15-6.72,15-15V95h130v25c0,8.28,6.72,15,15,15s15-6.72,15-15V95h36c8.27,0,15,6.73,15,15v59H30V110z
		 M467,457H45c-8.27,0-15-6.73-15-15V199h452v243C482,450.27,475.27,457,467,457z"/>
</g>
</svg>
