<?xml version="1.0" encoding="utf-8"?>
<!-- Generator: Adobe Illustrator 24.2.1, SVG Export Plug-In . SVG Version: 6.00 Build 0)  -->
<svg version="1.1" id="Layer_1" xmlns="http://www.w3.org/2000/svg" xmlns:xlink="http://www.w3.org/1999/xlink" x="0px" y="0px"
	 viewBox="0 0 512 512" style="enable-background:new 0 0 512 512;" xml:space="preserve">
<g id="outline">
	<path d="M96,64c0-4.42-3.58-8-8-8s-8,3.58-8,8v63.99H64V64c0-4.42-3.58-8-8-8s-8,3.58-8,8v64H32V64c0-4.42-3.58-8-8-8s-8,3.58-8,8
		v118.11c0.02,13,3.04,25.83,8.85,37.47c4.69,9.42,7.14,19.79,7.15,30.31V432c0,13.25,10.75,24,24,24s24-10.75,24-24V249.89
		c0.01-10.52,2.46-20.9,7.15-30.31c5.8-11.64,8.83-24.46,8.85-37.47V64z M80,182.11c-0.01,10.52-2.46,20.9-7.15,30.31
		c-5.8,11.64-8.83,24.46-8.85,37.47V432c0,4.42-3.58,8-8,8s-8-3.58-8-8V249.89c-0.02-13-3.04-25.83-8.85-37.47
		c-4.69-9.42-7.14-19.79-7.15-30.31V144h23.86c0.05,0,0.09,0.01,0.13,0.01s0.09-0.01,0.14-0.01H80V182.11z"/>
	<path d="M488,56c-39.75,0.04-71.96,32.25-72,72v96c0.02,21.62,12.47,41.3,32,50.59V432c0,13.25,10.75,24,24,24s24-10.75,24-24V64
		C496,59.58,492.42,56,488,56z M432,224v-96c0.04-27.83,20.47-51.42,48-55.43V264h-8C449.92,263.98,432.02,246.08,432,224z M472,440
		c-4.42,0-8-3.58-8-8V279.42c2.65,0.38,5.32,0.58,8,0.58h8v152C480,436.42,476.42,440,472,440z"/>
	<path d="M256,96c-88.22,0-160,71.77-160,160s71.78,160,160,160s160-71.77,160-160S344.22,96,256,96z M256,400
		c-79.4,0-144-64.6-144-144s64.6-144,144-144s144,64.6,144,144S335.4,400,256,400z"/>
	<path d="M256,144c-61.86,0-112,50.14-112,112s50.14,112,112,112s112-50.14,112-112C367.93,194.17,317.83,144.07,256,144z M256,352
		c-53.02,0-96-42.98-96-96s42.98-96,96-96s96,42.98,96,96C351.94,308.99,308.99,351.94,256,352z"/>
	<path d="M306.34,194.34l-40,40c-6.54-3.13-14.14-3.13-20.68,0l-24-24l-11.31,11.31l24,24c-5.71,11.96-0.65,26.29,11.31,32
		s26.29,0.65,32-11.31c3.13-6.54,3.13-14.15,0-20.69l40-40L306.34,194.34z M256,264c-4.42,0-8-3.58-8-8s3.58-8,8-8s8,3.58,8,8
		C264,260.42,260.42,264,256,264z"/>
</g>
</svg>
