<?xml version="1.0" encoding="utf-8"?>
<!-- Generator: Adobe Illustrator 24.2.1, SVG Export Plug-In . SVG Version: 6.00 Build 0)  -->
<svg version="1.1" id="Capa_1" xmlns="http://www.w3.org/2000/svg" xmlns:xlink="http://www.w3.org/1999/xlink" x="0px" y="0px"
	 viewBox="0 0 364.27 364.27" style="enable-background:new 0 0 364.27 364.27;" xml:space="preserve">
<path d="M92.44,116.51c20.69,0,37.53-16.83,37.53-37.53c0-20.69-16.83-37.53-37.53-37.53c-20.69,0-37.53,16.83-37.53,37.53
	C54.91,99.68,71.75,116.51,92.44,116.51z M92.44,59.46c10.77,0,19.53,8.76,19.53,19.53s-8.76,19.53-19.53,19.53
	c-10.77,0-19.53-8.76-19.53-19.53C72.91,68.22,81.68,59.46,92.44,59.46z M190.27,266.42v47.39c0,4.97-4.03,9-9,9H40.14
	c-4.97,0-9-4.03-9-9v-10.52c0-4.97,4.03-9,9-9s9,4.03,9,9v1.52h123.13v-29.39H76.21c-4.97,0-9-4.03-9-9s4.03-9,9-9h105.05
	C186.24,257.42,190.27,261.45,190.27,266.42z M355.27,218.52H271.4v-21.78h65.84c4.97,0,9-4.03,9-9v-98c0-4.97-4.03-9-9-9H187.56
	c-4.97,0-9,4.03-9,9v98c0,4.97,4.03,9,9,9h65.84v21.78H48.28l1.04-34.75c0.31-10.4,3.76-34.6,28.95-34.86
	c0.16,0,0.32-0.01,0.47-0.02c0.2,0.01,0.4,0.02,0.6,0.02h27.36c0.03,0,0.05,0,0.08,0c25.04,0.36,28.47,24.49,28.78,34.86
	c0.15,4.97,4.3,8.87,9.27,8.73c4.97-0.15,8.88-4.3,8.73-9.27c-0.95-31.51-19.3-52.04-46.76-52.32c-0.1,0-0.19,0-0.28,0H79.34
	c-0.19,0-0.38,0.01-0.57,0.02c-0.23-0.01-0.46-0.02-0.69-0.02c-27.46,0.28-45.82,20.82-46.76,52.32l-1.06,35.29H9
	c-4.97,0-9,4.03-9,9s4.03,9,9,9h20.73l-0.52,17.33c-0.15,4.97,3.76,9.12,8.73,9.26c0.09,0,0.18,0,0.27,0c4.85,0,8.85-3.85,8.99-8.73
	l0.53-17.86h214.47c0.12,0,0.25,0,0.37,0h92.69c4.97,0,9-4.03,9-9S360.24,218.52,355.27,218.52z M196.56,178.75v-80h131.67v80
	H196.56z"/>
</svg>
