<?xml version="1.0" encoding="utf-8"?>
<!-- Generator: Adobe Illustrator 24.2.1, SVG Export Plug-In . SVG Version: 6.00 Build 0)  -->
<svg version="1.1" id="Layer_1" xmlns="http://www.w3.org/2000/svg" xmlns:xlink="http://www.w3.org/1999/xlink" x="0px" y="0px"
	 viewBox="0 0 512 512" style="enable-background:new 0 0 512 512;" xml:space="preserve">
<style type="text/css">
	.st0{fill:#333333;}
	.st1{fill:#FFFFFF;}
</style>
<path d="M170.66,512c-4.57,0-8.9-0.64-13.23-1.98L29.05,467.24C11.59,461.14,0,444.87,0,426.67V42.68C0,19.15,19.14,0.02,42.67,0.02
	c4.56,0,8.89,0.64,13.23,1.98l128.38,42.77c17.47,6.1,29.05,22.38,29.05,40.57v383.99C213.33,492.86,194.19,512,170.66,512z
	 M42.67,32.01C36.8,32.01,32,36.82,32,42.68v383.99c0,4.54,3.05,8.77,7.4,10.28l127.78,42.58c0.92,0.3,2.11,0.47,3.48,0.47
	c5.87,0,10.66-4.8,10.66-10.67V85.35c0-4.54-3.05-8.77-7.4-10.28L46.14,32.48C45.23,32.19,44.03,32.01,42.67,32.01z"/>
<path d="M325.32,170.68c-8.83,0-16-7.17-16-16v-96c0-14.7-11.96-26.67-26.66-26.67H42.67c-8.83,0-16-7.17-16-16s7.17-16,16-16
	h239.99c32.36,0,58.66,26.3,58.66,58.67v96C341.32,163.51,334.15,170.68,325.32,170.68z"/>
<path d="M282.66,448h-85.33c-8.83,0-16-7.17-16-16s7.17-16,16-16h85.33c14.7,0,26.66-11.97,26.66-26.67v-96c0-8.83,7.17-16,16-16
	s16,7.17,16,16v96C341.32,421.7,315.02,448,282.66,448z"/>
<path class="st0" d="M269.09,234.63c-7.18,0-13.02-5.84-13.02-13.02s5.84-13.02,13.02-13.02h117.46c7.18,0,13.02,5.84,13.02,13.02
	s-5.84,13.02-13.02,13.02H269.09z"/>
<path class="st0" d="M439.93,277.34c-2.83,0-5.53-0.9-7.81-2.6c-2.78-2.09-4.58-5.13-5.08-8.58c-0.49-3.44,0.39-6.87,2.47-9.66
	l26.17-34.9l-26.17-34.9c-2.09-2.78-2.97-6.21-2.47-9.65c0.49-3.44,2.3-6.49,5.08-8.58c2.27-1.7,4.97-2.6,7.8-2.6
	c4.15,0,7.95,1.9,10.43,5.21l32.03,42.71c3.45,4.6,3.45,11.03,0,15.63l-32.03,42.71C447.87,275.44,444.07,277.34,439.93,277.34
	C439.93,277.34,439.93,277.34,439.93,277.34z"/>
<path class="st1" d="M136.5,288.2c11.61,0,21.02-9.41,21.02-21.02v-21.36c0-11.61-9.41-21.02-21.02-21.02s-21.02,9.41-21.02,21.02
	v21.36C115.48,278.79,124.89,288.2,136.5,288.2z"/>
</svg>
