<?xml version="1.0" encoding="utf-8"?>
<!-- Generator: Adobe Illustrator 24.2.1, SVG Export Plug-In . SVG Version: 6.00 Build 0)  -->
<svg version="1.1" id="Capa_1" xmlns="http://www.w3.org/2000/svg" xmlns:xlink="http://www.w3.org/1999/xlink" x="0px" y="0px"
	 viewBox="0 0 512 512" style="enable-background:new 0 0 512 512;" xml:space="preserve">
<g>
	<path d="M256,0C114.84,0,0,114.84,0,256s114.84,256,256,256s256-114.84,256-256S397.16,0,256,0z M256,482
		C131.38,482,30,380.62,30,256S131.38,30,256,30s226,101.38,226,226S380.62,482,256,482z"/>
	<path d="M256,60C147.93,60,60,147.93,60,256s87.93,196,196,196s196-87.92,196-196S364.08,60,256,60z M256,422
		c-91.53,0-166-74.47-166-166S164.47,90,256,90s166,74.47,166,166S347.53,422,256,422z"/>
	<path d="M362.77,170.44l-21.21-21.21L256,234.79l-85.21-85.21l-21.21,21.21L234.79,256l-21.21,21.21l21.21,21.21L256,277.21
		l21.21,21.21l21.21-21.21L277.21,256L362.77,170.44z"/>
	<path d="M241,120h30v30h-30V120z"/>
	<path d="M241,362h30v30h-30V362z"/>
	<path d="M120,241h30v30h-30V241z"/>
	<path d="M362,241h30v30h-30V241z"/>
</g>
</svg>
