<svg xmlns="http://www.w3.org/2000/svg" width="211.085" height="34.87" viewBox="0 0 211.085 34.87">
  <g id="Group_99" data-name="Group 99" transform="translate(-994.625 -89)">
    <g id="Group_94" data-name="Group 94" transform="translate(1044.61 89)">
      <path id="Path_9778" data-name="Path 9778" d="M0,356.96v4.98H9.8v27.267H14.9V361.94h9.758v-4.98Z" transform="translate(0 -355.788)" fill="#093170"/>
      <g id="Group_80" data-name="Group 80" transform="translate(22.512)">
        <g id="Group_97" data-name="Group 97">
          <path id="Path_9779" data-name="Path 9779" d="M90.839,387.1a10.24,10.24,0,0,1,4.034,3.966,11.77,11.77,0,0,1,1.488,5.87,2.612,2.612,0,0,1-.642,1.8,2.091,2.091,0,0,1-1.634.721H78.175a6.777,6.777,0,0,0,1.374,2.772,6.677,6.677,0,0,0,2.456,1.848,7.758,7.758,0,0,0,3.2.653,6.987,6.987,0,0,0,3.448-.992,3,3,0,0,1,1.465-.383,2.859,2.859,0,0,1,1.273.293,2.348,2.348,0,0,1,.958.857l1.127,1.667a11.422,11.422,0,0,1-3.763,2.456,11.868,11.868,0,0,1-4.507.879,12.382,12.382,0,0,1-6.174-1.532,11.07,11.07,0,0,1-4.27-4.237,12.14,12.14,0,0,1-1.544-6.129,12.3,12.3,0,0,1,1.521-6.118,11.064,11.064,0,0,1,4.2-4.259,12.734,12.734,0,0,1,11.9-.135m.586,8.192a6.056,6.056,0,0,0-2.31-3.516A6.753,6.753,0,0,0,85,390.489a7.22,7.22,0,0,0-3.211.71,6.692,6.692,0,0,0-2.422,1.983,6.894,6.894,0,0,0-1.285,2.941h.068a2.353,2.353,0,0,1,2.005-.834Z" transform="translate(-73.217 -375.684)" fill="#093170"/>
          <path id="Path_9780" data-name="Path 9780" d="M181.245,388.2q2.073,2.581,2.073,7.267v13.588h-4.912V396a6.7,6.7,0,0,0-1.1-4.259,3.945,3.945,0,0,0-3.245-1.352,6.979,6.979,0,0,0-3.02.743,11.589,11.589,0,0,0-2.907,2.006v15.91h-4.913V386.022h3.268a1.413,1.413,0,0,1,1.3.552,2.736,2.736,0,0,1,.349,1.476v.383a10.981,10.981,0,0,1,3.222-2.062,9.882,9.882,0,0,1,3.854-.755,7.291,7.291,0,0,1,6.039,2.581" transform="translate(-135.544 -375.633)" fill="#093170"/>
          <path id="Path_9781" data-name="Path 9781" d="M267.482,353.149v33.419h-3.155q-1.758,0-1.758-2.141v-.27a10.108,10.108,0,0,1-3.042,2.1,9.171,9.171,0,0,1-3.786.766,9.647,9.647,0,0,1-5.352-1.521,10.324,10.324,0,0,1-3.684-4.225,13.709,13.709,0,0,1-1.33-6.13A12.885,12.885,0,0,1,246.817,369a10.69,10.69,0,0,1,4-4.248,11.072,11.072,0,0,1,5.8-1.532,7.872,7.872,0,0,1,3.234.676,9.388,9.388,0,0,1,2.716,1.825V353.149Zm-7.4,28.056a9.823,9.823,0,0,0,2.49-2.3v-8.068a4.957,4.957,0,0,0-1.239-1.251,8.2,8.2,0,0,0-2.006-1.082,6.7,6.7,0,0,0-2.411-.44,6.574,6.574,0,0,0-3.414.9,6.289,6.289,0,0,0-2.377,2.513,7.633,7.633,0,0,0-.856,3.64,7.53,7.53,0,0,0,.845,3.594,6.234,6.234,0,0,0,2.332,2.479,6.452,6.452,0,0,0,3.38.89,5.951,5.951,0,0,0,3.256-.879" transform="translate(-192.441 -353.149)" fill="#093170"/>
          <path id="Path_9782" data-name="Path 9782" d="M353.311,385.82a16.513,16.513,0,0,1,1.859.631l-.5,2.231a2.325,2.325,0,0,1-.834,1.42,2.425,2.425,0,0,1-1.555.518,4.642,4.642,0,0,1-.518-.045,7.839,7.839,0,0,0-1.374-.113,5.133,5.133,0,0,0-3.054.991,7.926,7.926,0,0,0-2.31,2.659v14.941h-4.89V386.023h2.727a1.948,1.948,0,0,1,1.667.665,2.734,2.734,0,0,1,.5,1.679v.744a9.089,9.089,0,0,1,2.76-2.558,6.781,6.781,0,0,1,3.5-.935,8.216,8.216,0,0,1,2.017.2" transform="translate(-258.068 -375.634)" fill="#093170"/>
          <path id="Path_9783" data-name="Path 9783" d="M397.817,356.5a3.291,3.291,0,0,1,1.206-1.217,3.232,3.232,0,0,1,1.667-.451,3.136,3.136,0,0,1,1.634.451,3.323,3.323,0,0,1,1.194,1.217,3.3,3.3,0,0,1,0,3.29,3.312,3.312,0,0,1-1.194,1.217,3.13,3.13,0,0,1-1.634.451,3.226,3.226,0,0,1-1.667-.451,3.307,3.307,0,0,1-1.206-4.507m5.307,31.234h-4.913V364.7h4.913Z" transform="translate(-297.707 -354.316)" fill="#093170"/>
          <rect id="Rectangle_89" data-name="Rectangle 89" width="4.912" height="33.419" transform="translate(112.448 0)" fill="#093170"/>
          <path id="Path_9784" data-name="Path 9784" d="M473.619,408.586a12.742,12.742,0,0,1-3.684-2.456l.924-1.623a2.368,2.368,0,0,1,.924-.879,2.621,2.621,0,0,1,1.262-.315,3.032,3.032,0,0,1,1.375.315,19.939,19.939,0,0,0,2.107.924,5.827,5.827,0,0,0,1.994.338,3.583,3.583,0,0,0,2.31-.665,2.307,2.307,0,0,0,.822-1.9,2.075,2.075,0,0,0-.822-1.589,9.5,9.5,0,0,0-2.693-1.431,18.406,18.406,0,0,1-4.068-2.006,5.739,5.739,0,0,1-1.972-2.174,6.605,6.605,0,0,1-.541-2.806,6.758,6.758,0,0,1,.879-3.482,5.925,5.925,0,0,1,2.513-2.321,8.445,8.445,0,0,1,3.842-.823,10.841,10.841,0,0,1,3.628.654,8.27,8.27,0,0,1,3.087,1.87l-.856,1.69a2.17,2.17,0,0,1-.9.957,2.619,2.619,0,0,1-1.33.35,3.264,3.264,0,0,1-1.194-.248q-.2-.09-.642-.259a7.309,7.309,0,0,0-.845-.271,3.327,3.327,0,0,0-.811-.1,2.9,2.9,0,0,0-1.848.507,1.782,1.782,0,0,0-.631,1.476,1.674,1.674,0,0,0,.676,1.341,8.2,8.2,0,0,0,2.366,1.138,14.787,14.787,0,0,1,5.352,3.02,5.9,5.9,0,0,1,1.7,4.372,7.035,7.035,0,0,1-1.047,3.842,6.946,6.946,0,0,1-2.964,2.569,10.15,10.15,0,0,1-4.417.913,10.969,10.969,0,0,1-4.5-.924" transform="translate(-347.955 -375.685)" fill="#093170"/>
        </g>
      </g>
    </g>
    <path id="Path_9803" data-name="Path 9803" d="M131.067,4.96a16.935,16.935,0,0,0-28.91,11.975c0,.2,0,.407.012.61h0c0,.026,0,.052,0,.078A16.935,16.935,0,1,0,131.067,4.96m-2.449,23.694a12.7,12.7,0,0,0,2.632-7.776,10.432,10.432,0,0,0-10.42-10.42,8.528,8.528,0,0,0-8.519,8.519,7.006,7.006,0,0,0,7,7,5.787,5.787,0,0,0,5.781-5.781,4.812,4.812,0,0,0-4.807-4.807,4.033,4.033,0,0,0-4.028,4.028h1.826a2.2,2.2,0,0,1,2.2-2.2,2.985,2.985,0,0,1,2.981,2.981,3.959,3.959,0,0,1-3.955,3.955,5.178,5.178,0,0,1-5.172-5.172,6.7,6.7,0,0,1,6.693-6.693,8.6,8.6,0,0,1,8.594,8.594,10.984,10.984,0,0,1-10.971,10.971c-7.631,0-14.1-6.4-14.456-14.288-.008-.208-.014-.416-.014-.626a15.109,15.109,0,1,1,24.635,11.719" transform="translate(892.974 89.5)" fill="#093170" stroke="#093170" stroke-width="1"/>
  </g>
</svg>
